# xmcd CD database file
#
# Track frame offsets:
#	150
#	18996
#	30454
#	49180
#	62550
#	80801
#	92755
#	108596
#	122186
#	138098
#	152480
#	157726
#
# Disc length: 2164 seconds
#
# Revision: 0
# Processed by: cddbd v1.5.2PL0 Copyright (c) Steve Scherf et al.
# Submitted via: CDex 1.50
#
DISCID=8e08720c
DTITLE=Dan Miller and the Empty Saddles Band - Live from the Cody Theatre
DYEAR=2009
DGENRE=Country
TTITLE0=Great American Cowboy
TTITLE1=Across the Alley from the Alamo
TTITLE2=Because He Lives
TTITLE3=(They Call the Wind) Mariah
TTITLE4=Night Rider's Lament
TTITLE5=Back in the Saddle
TTITLE6=Faded Love
TTITLE7=San Antonio Stroll
TTITLE8=Cool Water
TTITLE9=Miles and Miles of Texas
TTITLE10=Flop Eared Mule
TTITLE11=Happy Trails
EXTD=YEAR: 2009
EXTT0=
EXTT1=
EXTT2=
EXTT3=
EXTT4=
EXTT5=
EXTT6=
EXTT7=
EXTT8=
EXTT9=
EXTT10=
EXTT11=
PLAYORDER=
